<?xml version="1.0" encoding="UTF-8" standalone="no"?>
<svg
   width="270.5"
   height="48.000359"
   viewBox="0 0 270.5 48.000359"
   version="1.1"
   id="svg11"
   xmlns="http://www.w3.org/2000/svg"
   xmlns:svg="http://www.w3.org/2000/svg">
  <defs
     id="defs1">
    <style
       id="style1">.a{fill:#000;}.b{fill:#f01414;}.c{fill:#fff;}</style>
  </defs>
  <title
     id="title1">db_regio</title>
  <path
     class="a"
     d="m 142.9,17.800359 h 7.9 c 5.9,0 9,2.7 9,7.7 a 22.45,22.45 0 0 1 -1.4,7.2 c -1.8,4.6 -5.5,6.9 -11.2,6.9 h -8.7 z m 4.7,17.9 a 5.5,5.5 0 0 0 5.1,-2.5 c 1,-1.5 1.8,-5 1.8,-7.5 0,-2.7 -1.4,-4.1 -4.4,-4.1 h -2.7 l -2.7,14 h 2.9 z"
     id="path1" />
  <path
     class="a"
     d="m 165.4,17.800359 h 7.9 c 4.3,0 6.7,1.7 6.7,4.9 a 5.22,5.22 0 0 1 -1.4,3.8 6,6 0 0 1 -3.2,1.6 c 2.8,0.5 4,1.9 4,4.6 0,4.6 -3.2,7 -9.5,7 h -8.8 z m 4.9,18 c 2.8,0 4.1,-1.2 4.1,-3.7 0,-1.6 -1,-2.4 -2.9,-2.4 h -3.2 l -1.2,6.1 z m 1.5,-9.3 a 2.69,2.69 0 0 0 3,-3 c 0,-1.3 -0.8,-1.9 -2.3,-1.9 h -2.6 l -1,4.9 z"
     id="path2" />
  <path
     class="a"
     d="m 203.1,17.800359 c 4.6,0 7,1.9 7,5.3 a 6.18,6.18 0 0 1 -2,4.9 9,9 0 0 1 -3.4,1.6 4.12,4.12 0 0 1 2.2,2.7 l 2.7,7.3 h -5.3 l -2.4,-6.6 c -0.6,-1.6 -1.3,-2.2 -2.8,-2.2 h -1.4 l -1.7,8.8 h -5.2 l 4.2,-21.8 z m -1.9,9.6 c 2.6,0 3.8,-1.2 3.8,-3.6 0,-1.4 -1,-2.1 -2.7,-2.1 h -2.7 l -1.1,5.8 h 2.7 z"
     id="path3" />
  <path
     class="a"
     d="m 223.2,38.900359 a 12.56,12.56 0 0 1 -5.5,1.1 c -4.4,0 -6.8,-2.2 -6.8,-6.2 a 12.78,12.78 0 0 1 2.6,-8 8.34,8.34 0 0 1 6.7,-2.8 c 3.6,0 5.7,1.7 5.7,4.6 0,2.4 -1.5,4.1 -4.3,4.9 a 20.16,20.16 0 0 1 -5.8,0.7 v 0.6 c 0,1.8 0.9,2.5 3.2,2.5 a 13.22,13.22 0 0 0 4.9,-1 z m -1.8,-10.7 a 1.68,1.68 0 0 0 -1.8,-1.8 c -1.9,0 -2.8,1.2 -3.4,4.1 4.1,-0.2 5.2,-0.7 5.2,-2.3 z"
     id="path4" />
  <path
     class="a"
     d="m 241.5,39.100359 c -0.9,4.8 -3.7,6.9 -9,6.9 a 17.58,17.58 0 0 1 -6,-1 l 0.7,-3.7 0.7,0.2 a 11.37,11.37 0 0 0 4.3,0.9 c 2.8,0 4,-1 4.5,-3.5 l 0.5,-2.5 c -1.8,2 -3.3,2.9 -5.2,2.9 -2.9,0 -4.6,-1.8 -4.6,-4.9 a 16.66,16.66 0 0 1 2.2,-8 7.24,7.24 0 0 1 6.2,-3 6.54,6.54 0 0 1 4.5,1.6 l 0.8,-1.3 h 3.3 z m -2.6,-11.6 a 4.31,4.31 0 0 0 -2.4,-0.8 3.29,3.29 0 0 0 -3.2,2.1 15.77,15.77 0 0 0 -0.9,4.9 1.77,1.77 0 0 0 1.9,2 c 1,0 1.9,-0.4 3.5,-1.5 z"
     id="path5" />
  <path
     class="a"
     d="m 248.2,24.100359 c 1.9,-0.1 3.2,-0.4 3.8,-1 l 1.1,0.3 -3.2,16.1 h -4.8 z m 6.1,-5 a 2.52,2.52 0 0 1 -2.6,2.6 2.31,2.31 0 0 1 -2.4,-2.4 2.52,2.52 0 0 1 2.6,-2.6 2.37,2.37 0 0 1 2.4,2.4 z"
     id="path6" />
  <path
     class="a"
     d="m 270.5,29.200359 a 15.34,15.34 0 0 1 -1.8,6.9 8.49,8.49 0 0 1 -7.5,3.9 c -4.1,0 -6.7,-2.4 -6.7,-6.4 a 13,13 0 0 1 2.6,-7.8 8.59,8.59 0 0 1 6.6,-2.8 c 4.2,0.1 6.8,2.5 6.8,6.2 z m -10.2,0 a 18.25,18.25 0 0 0 -0.9,4.8 c 0,1.8 0.7,2.6 2.2,2.6 1.5,0 2.4,-0.8 3.1,-2.5 a 24.5,24.5 0 0 0 0.9,-5.3 c 0,-1.6 -0.8,-2.5 -2.2,-2.5 -1.6,0.2 -2.4,0.9 -3.1,2.9 z"
     id="path7" />
  <path
     class="b"
     d="M 61.7,3.593805e-4 H 6.9 A 6.83,6.83 0 0 0 0,6.8003594 V 41.100359 a 6.91,6.91 0 0 0 6.9,6.9 h 54.8 a 6.91,6.91 0 0 0 6.9,-6.9 V 6.8003594 A 6.83,6.83 0 0 0 61.7,3.593805e-4 Z"
     id="path8" />
  <path
     class="c"
     d="m 63.6,41.100359 a 1.92,1.92 0 0 1 -1.9,2 H 6.9 a 1.92,1.92 0 0 1 -1.9,-2 V 6.8003594 a 1.92,1.92 0 0 1 1.9,-2 h 54.8 a 1.92,1.92 0 0 1 1.9,2 z"
     id="path9" />
  <path
     class="b"
     d="M 21,39.700359 H 9.4 V 8.3003594 H 21 c 8.1,0 12.6,5.0999996 12.6,15.5999996 0,9 -3.1,15.7 -12.6,15.8 z m 5,-15.2 c 0,-6.3 -0.7,-11.3 -7.5,-11.3 H 17 v 21.4 h 2.7 c 4,0 6.3,-3.2 6.3,-10.1 z"
     id="path10" />
  <path
     class="b"
     d="m 53.5,23.300359 a 7.74,7.74 0 0 0 5.5,-7.3 c 0,-0.7 -0.1,-7.6999996 -9,-7.6999996 H 36.9 V 39.700359 H 48 c 2.9,0 12.1,0 12.1,-8.8 0,-2.2 -0.9,-6.4 -6.6,-7.6 z m -9.1,-10.2 h 2.4 c 3.4,0 4.7,1.2 4.7,3.8 a 3.76,3.76 0 0 1 -4.1,3.8 h -3 z m 3.1,21.5 h -3.1 v -8.1 h 3.3 c 3.9,0 4.9,2.3 4.9,4 -0.1,4.1 -3.9,4.1 -5.1,4.1 z"
     id="path11" />
</svg>
