<?xml version="1.0" encoding="UTF-8" standalone="no"?>
<!-- Created with Inkscape (http://www.inkscape.org/) -->

<svg
   xmlns:dc="http://purl.org/dc/elements/1.1/"
   xmlns:cc="http://creativecommons.org/ns#"
   xmlns:rdf="http://www.w3.org/1999/02/22-rdf-syntax-ns#"
   xmlns:svg="http://www.w3.org/2000/svg"
   xmlns="http://www.w3.org/2000/svg"
   version="1.1"
   width="265mm"
   height="260mm"
   viewBox="0 0 265 260"
   id="svg2"
   xml:space="preserve"
   style="fill-rule:evenodd"><metadata
   id="metadata62"><rdf:RDF><cc:Work
       rdf:about=""><dc:format>image/svg+xml</dc:format><dc:type
         rdf:resource="http://purl.org/dc/dcmitype/StillImage" /><dc:title></dc:title></cc:Work></rdf:RDF></metadata>
 <defs
   id="defs4"><style
     type="text/css"
     id="style6" /></defs>
 <g
   id="Ebene_x0020_1">
  <metadata
   id="CorelCorpID_0Corel-Layer" />
  <path
   d="m 217.375,260.28125 0,54.75 28.125,0 0,293.375 -28.34375,0 0,55.46875 152.03125,0 c 50.3022,0 83.6875,-31.17572 83.6875,-71.96875 l -0.0625,-265.625 c 0,-37.47968 -35.80518,-66 -83.4375,-66 l -152,0 z m 109.6875,54.78125 29.53125,0 c 8.03693,0 13.59375,5.29813 13.59375,10.6875 l 0,271.625 c 0,7.15039 -6.87564,9.84375 -13.59375,9.84375 l -29.53125,0 0,-292.15625 z"
   transform="matrix(0.28222223,0,0,0.28222223,-2.4844439e-6,0)"
   id="path10"
   style="fill:#035e32;stroke:#035e32;stroke-width:1.77165353" />
  <path
   d="m 478.875,260.375 0,54.71875 23.09375,0 0,293.78125 -22.8125,0 0,54.9375 124.9375,0 0,-55.34375 -21.03125,0 0,-124.46875 21,0 c 11.51787,0 19.03125,5.93571 19.03125,14.125 l 0,107.8125 c 0,31.11874 22.83466,57.84375 50.21875,57.84375 l 58,0 0,-55.1875 -16.53125,0 c -5.93504,0 -9.96875,-7.1731 -9.96875,-15.28125 l 0,-88.125 c 0,-42.16252 -34.1456,-46.07306 -42.34375,-49.40625 25.49835,-9.80043 43.125,-32.0374 43.125,-53.625 l 0.0312,-75.8125 c 0,-37.47968 -27.11768,-65.96875 -74.75,-65.96875 l -152,0 z m 103.84375,54.34375 32.21875,0 c 5.61968,0 7.87777,3.04386 7.84375,7.625 l 0,100.15625 c 0,6.38894 -4.2663,10.125 -11,10.125 l -29.0625,0 0,-117.90625 z"
   transform="matrix(0.28222223,0,0,0.28222223,-2.4844439e-6,0)"
   id="path12"
   style="fill:#035e32;stroke:#035e32;stroke-width:1.77165353" />
  
  
  <path
   d="M 29.7486,96.5261 17.2923,90.932 c -0.8218,-0.3672 -1.3908,-0.564 -1.7214,-0.5831 -0.575,-0.0458 -1.083,0.2168 -1.5096,0.7946 L 9.801,89.2366 14.3284,79.1374 c 1.1938,-2.6598 2.5165,-4.4084 3.9683,-5.2529 2.2244,-1.2813 4.7891,-1.2651 7.7086,0.0487 l 9.0971,4.0754 c 2.5879,1.1654 4.328,2.3231 5.2205,3.4728 1.5816,2.0353 1.9655,4.3311 1.159,6.8876 -0.2946,0.929 -0.8728,2.3557 -1.7416,4.2876 l -3.7363,8.333 -4.2603,-1.9141 c 0.1311,-0.705 -0.0025,-1.2644 -0.4077,-1.6564 -0.2389,-0.228 -0.7656,-0.5256 -1.5874,-0.893 z m -11.5027,-12.39 15.8588,7.1198 0.8758,-1.9607 c 0.6074,-1.3624 0.7936,-2.3767 0.5514,-3.0358 -0.2349,-0.6662 -1.0444,-1.2994 -2.414,-1.9139 l -9.0971,-4.0826 c -1.3192,-0.5933 -2.3119,-0.7653 -2.978,-0.5087 -0.6734,0.2493 -1.2995,1.0372 -1.8857,2.3491 l -0.9112,2.0328 z"
   id="path18"
   style="fill:#035e32;fill-rule:nonzero" />
  <path
   d="m 44.865,35.9788 6.5419,6.0054 -4.1966,4.5729 c -0.1876,-0.1716 -0.3174,-0.2931 -0.404,-0.3718 -0.7645,-0.7006 -1.4483,-1.0065 -2.0585,-0.9247 -0.5528,0.0814 -1.1903,0.5152 -1.9052,1.2942 l -2.059,2.236 4.2699,3.925 5.4049,-5.8928 3.5992,3.3029 -5.405,5.8928 5.1066,4.6829 1.8804,-2.0413 c 0.9866,-1.0747 1.4138,-1.9243 1.2889,-2.5558 -0.1027,-0.5096 -0.7239,-1.2899 -1.8563,-2.3337 l -0.267,-0.2431 4.1968,-4.5729 7.0251,6.4488 -13.7267,14.9592 -3.4476,-3.16 c 0.3563,-0.6338 0.3969,-1.2015 0.1433,-1.7032 -0.1449,-0.2867 -0.5492,-0.7303 -1.22,-1.3523 L 37.7144,54.9174 C 37.0508,54.3098 36.5679,53.9383 36.2656,53.8176 35.7259,53.5901 35.166,53.6859 34.5787,54.0979 L 31.1383,50.938 44.865,35.9788 z"
   id="path20"
   style="fill:#035e32;fill-rule:nonzero" />
  <path
   d="m 82.4429,19.8307 5.7258,10.5614 c 1.3049,2.4046 1.9295,4.2676 1.8811,5.5893 -0.1123,2.916 -1.9396,5.3296 -5.4816,7.2476 -3.3909,1.8397 -6.3515,2.0864 -8.8747,0.7257 -1.2616,-0.6731 -2.3058,-1.8052 -3.1326,-3.4033 l -0.813,-1.4975 -5.626,-10.3743 C 65.6941,27.8878 65.3514,27.3835 65.108,27.167 64.6786,26.7774 64.1258,26.6817 63.4426,26.8729 l -2.2247,-4.1036 8.452,-4.585 2.2247,4.1037 c -0.5263,0.4648 -0.7583,0.9883 -0.6816,1.5704 0.0419,0.3091 0.2838,0.8705 0.7188,1.6695 l 5.7115,10.5471 c 0.5777,1.0583 1.1208,1.7357 1.6369,2.0323 0.8457,0.4991 1.8372,0.4385 2.9891,-0.1819 1.7638,-0.9626 2.0289,-2.5779 0.7883,-4.8601 l -5.683,-10.4894 c -0.4279,-0.7847 -0.7707,-1.289 -1.014,-1.5127 -0.4367,-0.3825 -0.9966,-0.4781 -1.6871,-0.2797 l -2.2246,-4.1036 7.7321,-4.1928 2.2246,4.1036 c -0.5478,0.4575 -0.7797,0.9739 -0.6886,1.5489 0.0561,0.3378 0.298,0.8992 0.7259,1.6911 z"
   id="path22"
   style="fill:#035e32;fill-rule:nonzero" />
  <path
   d="m 122.094,2.0573 2.0009,11.5242 -5.2448,0.9075 -0.5359,-3.0894 c -0.1858,-1.049 -0.4725,-1.7748 -0.8673,-2.1702 -0.4809,-0.4746 -1.2205,-0.6548 -2.2264,-0.5336 l 2.7084,15.5836 c 0.1501,0.8836 0.3075,1.4728 0.4725,1.7531 0.2869,0.496 0.7822,0.7622 1.5006,0.806 l 0.8003,4.6054 -9.4693,1.6435 -0.8004,-4.6054 c 0.6612,-0.2867 1.0494,-0.703 1.1505,-1.2632 0.0578,-0.3088 0.0153,-0.9124 -0.142,-1.8104 L 108.7327,9.8177 c -1.6885,0.4366 -2.3577,1.6859 -2.0004,3.7408 l 0.5146,2.9457 -5.2449,0.9075 -2.0009,-11.5242 22.0929,-3.8302 z"
   id="path24"
   style="fill:#035e32;fill-rule:nonzero" />
  <path
   d="m 162.481,6.4996 -0.7489,6.7062 -6.3755,-0.7147 c 0.041,-0.4026 0.0825,-0.7188 0.1029,-0.956 0.2475,-2.1779 -0.6781,-3.38 -2.7769,-3.6136 -0.8051,-0.0893 -1.5155,0.058 -2.1242,0.4347 -0.6445,0.4127 -1.015,1.0108 -1.1043,1.8015 -0.0962,0.8553 0.2379,1.5792 1.0025,2.193 0.4761,0.3783 2.1835,1.3323 5.1221,2.8618 2.1464,1.117 3.6033,2.2589 4.3564,3.426 0.8688,1.346 1.1725,3.1405 0.9182,5.3975 -0.3229,2.8966 -1.4901,5.0361 -3.4874,6.4039 -1.8827,1.2954 -4.2939,1.7818 -7.2337,1.452 -3.4214,-0.3849 -6.5465,-1.8488 -9.397,-4.3988 l 0.8041,-7.1519 6.6055,0.7423 c -0.0481,0.4241 -0.0895,0.7691 -0.1168,1.0493 -0.2678,2.4079 0.6583,3.7322 2.7931,3.9728 0.9201,0.1031 1.7021,-0.0805 2.3535,-0.5508 0.6441,-0.4702 1.0213,-1.1617 1.1172,-2.0674 0.1237,-1.0997 -0.3265,-2.0672 -1.3653,-2.9024 -0.5554,-0.457 -1.4922,-1.034 -2.8175,-1.7169 -1.8223,-0.9533 -2.8379,-1.4869 -3.0396,-1.608 -1.1457,-0.6839 -2.0183,-1.3474 -2.6106,-1.991 -1.3075,-1.4301 -1.8204,-3.3886 -1.5456,-5.8684 0.3779,-3.371 1.9685,-5.5988 4.7718,-6.6834 1.6418,-0.6333 3.6092,-0.823 5.9093,-0.5617 3.5507,0.3986 6.5177,1.8489 8.8867,4.344 z"
   id="path26"
   style="fill:#035e32;fill-rule:nonzero" />
  <path
   d="m 194.078,35.9677 -4.4652,8.6825 c -3.7923,-0.2668 -6.9226,-1.0349 -9.3911,-2.3045 -3.6309,-1.8683 -5.6374,-4.1498 -6.0123,-6.8516 -0.177,-1.2575 0.2576,-2.8872 1.2891,-4.8964 l 6.3985,-12.4426 c 2.3372,-4.5422 6.3257,-5.3526 11.9802,-2.4455 2.9779,1.5293 5.459,3.5963 7.4361,6.1866 l -3.7078,7.2116 -5.5396,-2.8495 0.3679,-0.7176 c 1.0892,-2.1168 0.7477,-3.6404 -1.039,-4.5565 -1.8658,-0.9666 -3.4117,-0.2587 -4.6308,2.1092 l -4.7754,9.2781 c -0.5843,1.141 -0.8305,2.0599 -0.7386,2.7713 0.1132,0.8479 0.715,1.5532 1.7986,2.1086 1.7724,0.9089 3.2465,0.2225 4.4222,-2.0593 l 1.0676,-2.081 5.5396,2.8566 z"
   id="path28"
   style="fill:#035e32;fill-rule:nonzero" />
  <path
   d="m 217.352,48.1647 4.2607,4.4186 2.8507,-2.7464 c 0.6557,-0.6376 1.047,-1.0934 1.181,-1.3819 0.2472,-0.5265 0.1921,-1.0935 -0.172,-1.6939 l 3.3566,-3.2463 6.6809,6.9201 -3.3639,3.2462 c -0.5995,-0.3973 -1.1605,-0.4788 -1.6901,-0.2446 -0.3006,0.1391 -0.7788,0.5165 -1.4202,1.1397 l -9.8276,9.478 c -0.6557,0.6376 -1.0542,1.0934 -1.1883,1.3819 -0.2472,0.5122 -0.1851,1.072 0.1793,1.694 l -3.3566,3.2461 -6.6808,-6.9199 3.3637,-3.2463 c 0.6067,0.3901 1.1677,0.4716 1.6902,0.2445 0.3006,-0.1389 0.7715,-0.5164 1.4201,-1.1396 l 3.4636,-3.3404 -4.2608,-4.4186 -3.4636,3.3405 c -0.6485,0.6232 -1.0469,1.0862 -1.1882,1.3819 -0.2471,0.5122 -0.185,1.0791 0.1794,1.6939 l -3.3639,3.2463 -6.6737,-6.92 3.3566,-3.2462 c 0.6139,0.39 1.1749,0.4716 1.6974,0.2445 0.3006,-0.139 0.7716,-0.5165 1.4201,-1.1397 l 9.8206,-9.478 c 0.6486,-0.6231 1.047,-1.0862 1.1882,-1.3819 0.2544,-0.5193 0.1993,-1.0864 -0.1793,-1.6939 l 3.3637,-3.2462 6.6738,6.92 -3.3565,3.2462 c -0.5996,-0.3973 -1.1679,-0.4788 -1.6975,-0.2445 -0.3006,0.139 -0.7716,0.5165 -1.4201,1.1396 l -2.8435,2.7463 z"
   id="path30"
   style="fill:#035e32;fill-rule:nonzero" />
  <path
   d="m 255.669,85.5526 -8.1225,3.5811 -2.5018,-5.6801 c 0.2293,-0.1021 0.394,-0.175 0.5015,-0.2188 0.9455,-0.423 1.5025,-0.9223 1.6709,-1.5197 0.1473,-0.5398 0.006,-1.2931 -0.4245,-2.26 l -1.2253,-2.7864 -5.2932,2.334 3.2236,7.3131 -4.4695,1.9692 -3.2237,-7.3131 -6.3533,2.8007 1.1231,2.5427 c 0.5835,1.3323 1.1918,2.0682 1.825,2.2077 0.5107,0.1115 1.4716,-0.1463 2.8827,-0.7662 l 0.3295,-0.1459 2.5017,5.6801 -8.7243,3.8437 -8.1905,-18.5802 4.2761,-1.8818 c 0.442,0.5718 0.9395,0.8414 1.5068,0.809 0.316,-0.0165 0.8894,-0.2071 1.7275,-0.5718 l 12.4918,-5.5066 c 0.8237,-0.3646 1.3534,-0.6555 1.5889,-0.8869 0.4212,-0.3979 0.5612,-0.952 0.42,-1.6623 l 4.269,-1.8816 8.1905,18.5801 z"
   id="path32"
   style="fill:#035e32;fill-rule:nonzero" />
  <ellipse
   cx="19.6842"
   cy="112.714"
   rx="3.7042"
   ry="3.7040999"
   id="ellipse34"
   style="fill:#035e32;stroke:#035e32;stroke-width:0.5" />
  <ellipse
   cx="247.496"
   cy="111.656"
   rx="3.7042"
   ry="3.7040999"
   id="ellipse36"
   style="fill:#035e32;stroke:#035e32;stroke-width:0.5" />
  <path
   d="m 9.9614,153.031 -4.6475,0.4988 -0.7662,-7.1327 c 0.9623,-0.4891 2.3557,-0.8205 4.1658,-1.0013 l 3.9147,-0.4193 c 1.1565,-0.1228 1.9537,-0.4394 2.3988,-0.957 0.4378,-0.5103 0.5953,-1.3365 0.4724,-2.4714 l -0.2602,-2.3991 -3.8502,0.4192 c -0.905,0.094 -1.5011,0.2165 -1.7812,0.3604 -0.5099,0.2517 -0.8112,0.7331 -0.9041,1.4445 l -4.6403,0.4986 -1.0336,-9.5605 4.6474,-0.4988 c 0.2448,0.6823 0.6401,1.0915 1.1862,1.2276 0.3232,0.0789 0.9267,0.0713 1.8246,-0.0227 l 13.5759,-1.4601 c 0.8906,-0.1012 1.4868,-0.2165 1.7812,-0.3675 0.5242,-0.2519 0.8257,-0.7334 0.9041,-1.4517 l 4.6403,-0.4988 1.2577,11.6724 c 0.2891,2.665 0.0893,4.6693 -0.5779,6.013 -1.1192,2.2205 -3.338,3.515 -6.6565,3.8692 -3.6562,0.3903 -6.0348,-0.8652 -7.1358,-3.781 -0.142,2.6006 -1.434,4.0309 -3.8763,4.2912 0.3161,-0.0362 0.1508,-0.0145 -0.5172,0.0578 -0.6608,0.0651 -1.1348,0.1228 -1.4293,0.1518 l -0.4167,0.0433 c -1.2426,0.1373 -2.0038,0.6263 -2.2761,1.4741 z m 17.0795,-15.1469 -6.7161,0.7227 0.2746,2.5285 c 0.1229,1.1564 0.382,1.9536 0.7846,2.3844 0.6254,0.6677 1.6313,0.9256 3.0248,0.781 1.2857,-0.1445 2.1403,-0.5905 2.5636,-1.3594 0.3445,-0.6252 0.4372,-1.6166 0.2925,-2.967 l -0.224,-2.0902 z"
   id="path38"
   style="fill:#035e32;fill-rule:nonzero" />
  <path
   d="m 46.3219,179.718 -8.0134,3.8375 -2.684,-5.5979 c 0.2293,-0.1087 0.3942,-0.1886 0.4945,-0.2393 0.939,-0.4498 1.4825,-0.9695 1.6306,-1.5664 0.1267,-0.5466 -0.0348,-1.293 -0.4991,-2.2534 l -1.3059,-2.7452 -5.2108,2.4956 3.446,7.2106 -4.401,2.1038 -3.4459,-7.2106 -6.2716,3.0033 1.197,2.5015 c 0.6311,1.3188 1.2594,2.0342 1.8922,2.1533 0.5104,0.0982 1.4645,-0.1864 2.855,-0.8537 l 0.3226,-0.1524 2.6841,5.5979 -8.6011,4.1133 -8.7707,-18.3204 4.2146,-2.0167 c 0.4551,0.5582 0.9664,0.8144 1.5337,0.7615 0.3159,-0.0231 0.8825,-0.234 1.7067,-0.6258 l 12.3211,-5.8979 c 0.81,-0.3845 1.3257,-0.6958 1.5545,-0.934 0.4075,-0.4113 0.5343,-0.9651 0.3657,-1.6682 l 4.2146,-2.0167 8.7706,18.3203 z"
   id="path40"
   style="fill:#035e32;fill-rule:nonzero" />
  <path
   d="m 38.1866,205.539 10.2135,-9.063 c 0.6703,-0.6009 1.0887,-1.0375 1.2405,-1.3314 0.2822,-0.509 0.2484,-1.0767 -0.1012,-1.703 l 3.4958,-3.0972 6.3804,7.1935 -3.4957,3.0972 c -0.5803,-0.4189 -1.1402,-0.5216 -1.6798,-0.3081 -0.3021,0.121 -0.792,0.4783 -1.4624,1.0792 L 42.557,210.469 c -0.6775,0.6081 -1.0958,1.0447 -1.2405,1.3243 -0.2677,0.5018 -0.234,1.0695 0.1084,1.7101 l -3.4958,3.0973 -6.3804,-7.1935 3.4957,-3.0972 c 0.5876,0.4117 1.1474,0.5144 1.6727,0.3009 0.2949,-0.1067 0.7847,-0.464 1.4695,-1.0719 z"
   id="path42"
   style="fill:#035e32;fill-rule:nonzero" />
  <path
   d="m 75.8784,231.595 -5.3255,8.1758 c -3.749,-0.6438 -6.7864,-1.7249 -9.1121,-3.2434 -3.4239,-2.2237 -5.181,-4.7041 -5.2855,-7.4268 -0.0416,-1.2715 0.5493,-2.8512 1.7799,-4.7462 l 7.6356,-11.7217 c 2.7851,-4.2781 6.8442,-4.6828 12.1704,-1.214 2.8065,1.8278 5.0595,4.1365 6.7658,6.9185 l -4.4186,6.7833 -5.2185,-3.3969 0.439,-0.6676 c 1.3026,-2.0026 1.1104,-3.5472 -0.5692,-4.6412 -1.7658,-1.1514 -3.3756,-0.6074 -4.8293,1.625 l -5.6996,8.75 c -0.6909,1.0696 -1.0295,1.9599 -1.0089,2.6783 0.0278,0.8549 0.5513,1.6169 1.5777,2.279 1.6653,1.0939 3.2032,0.557 4.6065,-1.5965 l 1.2738,-1.9524 5.2185,3.3968 z"
   id="path44"
   style="fill:#035e32;fill-rule:nonzero" />
  <path
   d="m 101.163,235.023 5.9574,1.5152 0.975,-3.8348 c 0.2246,-0.8778 0.3143,-1.4818 0.2765,-1.7905 -0.0682,-0.5814 -0.4086,-1.0319 -1.0355,-1.3513 l 1.1504,-4.5255 9.3173,2.3711 -1.1504,4.5255 c -0.7185,-0.0244 -1.2488,0.2016 -1.569,0.6849 -0.1852,0.2741 -0.39,0.8429 -0.6145,1.7135 l -3.3601,13.2312 c -0.2245,0.885 -0.3142,1.4818 -0.2764,1.7977 0.0538,0.5671 0.4085,1.0176 1.0499,1.3512 l -1.1504,4.5327 -9.3173,-2.371 1.1504,-4.5255 c 0.7185,0.01 1.2343,-0.2231 1.5547,-0.6921 0.1851,-0.2669 0.3899,-0.8428 0.6073,-1.7134 l 1.1855,-4.6695 -5.9574,-1.5152 -1.1854,4.6767 c -0.2174,0.8705 -0.3143,1.4674 -0.2764,1.7904 0.0537,0.5672 0.4013,1.0176 1.0426,1.3513 l -1.1503,4.5328 -9.3174,-2.3711 1.1505,-4.5256 c 0.7184,0.01 1.2414,-0.2231 1.5619,-0.6848 0.185,-0.2741 0.3899,-0.8429 0.6072,-1.7134 l 3.3601,-13.2385 c 0.2246,-0.8706 0.3215,-1.4674 0.2835,-1.7977 -0.0538,-0.5744 -0.4013,-1.0248 -1.0427,-1.3442 l 1.1505,-4.5327 9.3173,2.3711 -1.1505,4.5256 c -0.7185,-0.0243 -1.2415,0.2016 -1.5618,0.6848 -0.1851,0.2742 -0.39,0.8428 -0.6073,1.7135 l -0.9752,3.8276 z"
   id="path46"
   style="fill:#035e32;fill-rule:nonzero" />
  <path
   d="m 150.579,229.324 0.6405,6.7211 -6.3908,0.6102 c -0.0377,-0.4021 -0.0678,-0.7252 -0.0905,-0.9622 -0.2107,-2.1757 -1.3646,-3.1691 -3.4685,-2.9658 -0.8042,0.0754 -1.4638,0.3657 -1.9788,0.8637 -0.5507,0.5339 -0.792,1.1959 -0.7167,1.993 0.0828,0.8545 0.5598,1.4989 1.4309,1.9331 0.5473,0.2778 2.4175,0.8586 5.6038,1.7495 2.3304,0.6506 3.9863,1.4766 4.9748,2.4635 1.1186,1.1372 1.7869,2.8296 2.0053,5.0914 0.2788,2.9081 -0.4221,5.2388 -2.1025,6.9846 -1.573,1.6592 -3.8315,2.6319 -6.7827,2.9108 -3.418,0.3312 -6.7835,-0.4655 -10.0963,-2.3688 l -0.6856,-7.1663 6.6205,-0.6327 c 0.0378,0.4236 0.0753,0.7682 0.098,1.0483 0.2335,2.4127 1.4165,3.5209 3.5563,3.3174 0.9191,-0.0903 1.6503,-0.4312 2.1793,-1.0226 0.536,-0.5986 0.7627,-1.3467 0.6796,-2.2514 -0.1054,-1.1059 -0.7558,-1.9578 -1.9366,-2.5632 -0.6408,-0.3347 -1.6769,-0.7037 -3.1082,-1.0996 -1.9852,-0.5588 -3.0857,-0.8771 -3.3087,-0.9551 -1.2662,-0.4254 -2.2525,-0.8952 -2.9658,-1.4092 -1.5783,-1.128 -2.4843,-2.9343 -2.7181,-5.4259 -0.3238,-3.3749 0.7785,-5.8868 3.2999,-7.5215 1.4683,-0.9548 3.3622,-1.5451 5.6672,-1.7636 3.5615,-0.3391 6.7546,0.4657 9.5937,2.4213 z"
   id="path48"
   style="fill:#035e32;fill-rule:nonzero" />
  <path
   d="m 184.987,228.953 c 3.0884,-0.7994 5.5101,0.5207 7.2652,3.9677 1.3595,2.6641 1.5981,4.9484 0.7158,6.8669 -0.6168,1.3509 -2.2251,2.6953 -4.839,4.026 l -11.224,5.7329 -2.1219,-4.1651 c 0.5456,-0.4672 0.7895,-0.9846 0.7173,-1.5449 -0.0362,-0.3304 -0.2592,-0.8905 -0.6693,-1.6876 l -6.2075,-12.1647 c -0.41,-0.7972 -0.7336,-1.3142 -0.9709,-1.5367 -0.424,-0.3948 -0.9844,-0.5022 -1.6811,-0.3222 l -2.1219,-4.1578 10.0462,-5.1286 c 1.6517,-0.8416 2.9875,-1.3812 4.0218,-1.6046 3.4835,-0.7711 6.128,0.6208 7.9406,4.1682 1.0934,2.1328 1.2814,4.0219 0.5713,5.6603 -0.2582,0.6035 -0.739,1.236 -1.4426,1.8902 z m -11.4387,-3.8211 2.6757,5.2494 2.6427,-1.3452 c 1.8383,-0.9422 2.3116,-2.2787 1.4268,-4.0165 -0.8992,-1.7593 -2.3146,-2.1463 -4.239,-1.168 l -2.5062,1.2803 z m 4.92,9.6514 3.172,6.2044 2.6212,-1.338 c 2.1256,-1.0788 2.6561,-2.6596 1.5987,-4.7349 -1.0574,-2.061 -2.6452,-2.5484 -4.7637,-1.4694 l -2.6282,1.3379 z"
   id="path50"
   style="fill:#035e32;fill-rule:nonzero" />
  <path
   d="m 205.869,196.947 18.2117,12.1714 c 1.1689,0.7826 2.1689,1.0059 3.0072,0.6699 l 3.2832,3.3188 -6.9874,6.9064 -3.2832,-3.3188 c 0.6489,-0.737 0.6949,-1.3838 0.1452,-1.9478 -0.188,-0.1854 -0.4407,-0.3849 -0.7438,-0.5913 l -1.0247,-0.7044 -3.9469,3.898 0.675,1.0516 c 0.1088,0.1644 0.2897,0.3716 0.5357,0.6214 0.6147,0.6209 1.3113,0.5876 2.097,-0.0857 l 3.2833,3.3188 -6.238,6.1688 -3.2832,-3.3188 c 0.3321,-0.8284 0.081,-1.8683 -0.7606,-3.1343 l -12.0292,-18.0381 7.0587,-6.9859 z m 9.0583,14.1497 -8.0946,-5.2483 5.3111,8.0037 2.7835,-2.7554 z"
   id="path52"
   style="fill:#035e32;fill-rule:nonzero" />
  <path
   d="m 230.957,183.033 2.767,-5.4839 -3.5295,-1.7839 c -0.8162,-0.4078 -1.375,-0.6271 -1.6909,-0.658 -0.5815,-0.0614 -1.1003,0.1793 -1.5494,0.7223 l -4.1666,-2.1043 4.3325,-8.584 4.1737,2.1044 c -0.1843,0.7027 -0.0731,1.2567 0.3262,1.6832 0.2284,0.2386 0.7434,0.5582 1.5453,0.9659 l 12.1849,6.1528 c 0.8162,0.4078 1.3822,0.6343 1.6908,0.6651 0.5672,0.0614 1.0788,-0.1794 1.5494,-0.7293 l 4.1668,2.1042 -4.3325,8.584 -4.1667,-2.1044 c 0.1628,-0.7029 0.0517,-1.2639 -0.3334,-1.676 -0.2283,-0.2387 -0.7361,-0.5654 -1.538,-0.9659 l -4.3027,-2.1698 -2.767,5.4839 4.2955,2.1698 c 0.802,0.4006 1.3679,0.6271 1.6909,0.6652 0.5671,0.0614 1.086,-0.1794 1.5494,-0.7294 l 4.1667,2.1043 -4.3324,8.5839 -4.1667,-2.1043 c 0.1628,-0.7029 0.0516,-1.264 -0.3334,-1.6761 -0.2212,-0.2385 -0.7362,-0.5653 -1.538,-0.9658 l -12.1922,-6.1528 c -0.8018,-0.4078 -1.3607,-0.6271 -1.6908,-0.6652 -0.5742,-0.0758 -1.0932,0.1722 -1.5422,0.7222 l -4.1738,-2.1043 4.3324,-8.5839 4.1738,2.1043 c -0.1771,0.6957 -0.0731,1.2567 0.3263,1.6832 0.2282,0.2387 0.7433,0.5583 1.5451,0.9588 l 3.5295,1.7838 z"
   id="path54"
   style="fill:#035e32;fill-rule:nonzero" />
  <path
   d="m 262.334,140.321 -15.7127,5.9209 7.5334,0.7019 c 0.8985,0.08 1.502,0.083 1.8175,0.002 0.5521,-0.1475 0.9372,-0.5596 1.1695,-1.2437 l 4.6509,0.4346 -0.8352,9.0285 -4.6509,-0.4345 c -0.1055,-0.7105 -0.4105,-1.1896 -0.9295,-1.4375 -0.2955,-0.1416 -0.8925,-0.2524 -1.7839,-0.3324 l -13.6003,-1.2631 c -0.8914,-0.08 -1.502,-0.0829 -1.8175,-0.002 -0.5593,0.1475 -0.9516,0.5597 -1.1695,1.2436 l -4.6508,-0.4274 0.6947,-7.5261 15.5186,-5.934 -7.3393,-0.6816 c -0.8913,-0.08 -1.4947,-0.083 -1.8175,-0.002 -0.5593,0.1475 -0.9515,0.5597 -1.1695,1.2437 l -4.6508,-0.4274 0.8352,-9.0286 4.6509,0.4275 c 0.0911,0.7033 0.396,1.1825 0.9223,1.4446 0.2883,0.1345 0.8781,0.2454 1.7911,0.3324 l 21.0978,1.9581 -0.5545,6.0022 z"
   id="path56"
   style="fill:#035e32;fill-rule:nonzero" />
  <rect
   width="16.602699"
   height="4.0349002"
   x="0"
   y="0"
   transform="matrix(0.711886,-0.702295,0.702295,0.711886,196.079,206.336)"
   id="rect58"
   style="fill:#035e32;stroke:#035e32;stroke-width:0.5" />
 </g>
</svg>